HIERARCHY
ROOT Hips
{
	OFFSET -3.958830 18.904000 13.208200
	CHANNELS 6 Xposition Yposition Zposition Zrotation Yrotation Xrotation 
	JOINT LHipJoint
	{
		OFFSET 0.000000 0.000000 0.000000
		CHANNELS 3 Zrotation Yrotation Xrotation
		JOINT LeftUpLeg
		{
			OFFSET 1.800000 -1.400000 0.085000
			CHANNELS 3 Zrotation Yrotation Xrotation
			JOINT LeftLeg
			{
				OFFSET 2.215000 -6.000000 0.000000
				CHANNELS 3 Zrotation Yrotation Xrotation
				JOINT LeftFoot
				{
					OFFSET 2.500000 -6.900000 0.000000
					CHANNELS 3 Zrotation Yrotation Xrotation
					JOINT LeftToeBase
					{
						OFFSET 0.200000 -0.500000 1.950000
						CHANNELS 3 Zrotation Yrotation Xrotation
						End Site
						{
							OFFSET 0.000000 0.000000 0.000000
						}
					}
				}
			}
		}
	}
	JOINT RHipJoint
	{
		OFFSET 0.000000 0.000000 0.000000
		CHANNELS 3 Zrotation Yrotation Xrotation
		JOINT RightUpLeg
		{
			OFFSET -1.800000 -1.400000 0.085000
			CHANNELS 3 Zrotation Yrotation Xrotation
			JOINT RightLeg
			{
				OFFSET -2.215000 -6.000000 0.000000
				CHANNELS 3 Zrotation Yrotation Xrotation
				JOINT RightFoot
				{
					OFFSET -2.500000 -6.900000 0.000000
					CHANNELS 3 Zrotation Yrotation Xrotation
					JOINT RightToeBase
					{
						OFFSET -0.200000 -0.500000 1.950000
						CHANNELS 3 Zrotation Yrotation Xrotation
						End Site
						{
							OFFSET 0.000000 0.000000 0.000000
						}
					}
				}
			}
		}
	}
	JOINT LowerBack
	{
		OFFSET 0.000000 0.000000 0.000000
		CHANNELS 3 Zrotation Yrotation Xrotation
		JOINT Spine
		{
			OFFSET -0.087000 1.940000 -0.288900
			CHANNELS 3 Zrotation Yrotation Xrotation
			JOINT Spine1
			{
				OFFSET 0.000000 1.950000 0.060000
				CHANNELS 3 Zrotation Yrotation Xrotation
				JOINT Neck
				{
					OFFSET 0.000000 0.000000 0.000000
					CHANNELS 3 Zrotation Yrotation Xrotation
					JOINT Neck1
					{
						OFFSET 0.000000 1.600000 0.340000
						CHANNELS 3 Zrotation Yrotation Xrotation
						JOINT Head
						{
							OFFSET 0.000000 1.667000 -0.240000
							CHANNELS 3 Zrotation Yrotation Xrotation
							End Site
							{
								OFFSET 0.000000 0.000000 0.000000
							}
						}
					}
				}
				JOINT LeftShoulder
				{
					OFFSET 0.000000 0.000000 0.000000
					CHANNELS 3 Zrotation Yrotation Xrotation
					JOINT LeftArm
					{
						OFFSET 2.700000 1.550000 -0.730000
						CHANNELS 3 Zrotation Yrotation Xrotation
						JOINT LeftForeArm
						{
							OFFSET 5.450000 0.000000 0.000000
							CHANNELS 3 Zrotation Yrotation Xrotation
							JOINT LeftHand
							{
								OFFSET 3.450000 0.000000 0.000000
								CHANNELS 3 Zrotation Yrotation Xrotation
								JOINT LeftHandIndex1
								{
									OFFSET 0.750000 0.000000 0.000000
									CHANNELS 3 Zrotation Yrotation Xrotation
									End Site
									{
										OFFSET 0.000000 0.000000 0.000000
									}
								}
							}
						}
					}
				}
				JOINT RightShoulder
				{
					OFFSET 0.000000 0.000000 0.000000
					CHANNELS 3 Zrotation Yrotation Xrotation
					JOINT RightArm
					{
						OFFSET -2.700000 1.550000 -0.730000
						CHANNELS 3 Zrotation Yrotation Xrotation
						JOINT RightForeArm
						{
							OFFSET -5.450000 0.000000 0.000000
							CHANNELS 3 Zrotation Yrotation Xrotation
							JOINT RightHand
							{
								OFFSET -3.450000 0.000000 0.000000
								CHANNELS 3 Zrotation Yrotation Xrotation
								JOINT RightHandIndex1
								{
									OFFSET -0.750000 0.000000 0.000000
									CHANNELS 3 Zrotation Yrotation Xrotation
									End Site
									{
										OFFSET 0.000000 0.000000 0.000000
									}
								}
							}
						}
					}
				}
			}
		}
	}
}
MOTION
Frames: 14
Frame Time: 0.016667
-2.549920 17.953510 -1.570520 0.286266 4.348421 -3.326784 -15.077197 12.969492 1.948862 20.212632 1.503055 -7.229642 0.130551 5.085342 9.854194 -0.420460 4.267408 3.247869 0.632330 0.407780 0.393190 18.235417 -10.822871 3.394908 -25.066051 1.580779 -10.115370 17.523378 -6.383794 5.731540 -0.454764 -5.017551 2.765178 0.254660 0.236490 0.017370 -3.747816 -0.454502 -7.445672 3.370061 1.766318 6.990286 0.638557 1.823586 19.957864 0.928768 -4.899375 -15.417881 -9.477286 4.532448 44.257791 3.685260 -1.203510 -10.017570 -3.006761 -22.320752 10.713079 -46.595436 -9.469059 -0.970603 24.110721 -12.140354 -4.018223 -3.557586 2.928877 0.502600 0.056650 -0.069710 0.255270 3.408057 30.376367 9.350291 38.325851 38.972001 2.150232 -24.721733 25.973883 -8.550097 1.920036 -1.448002 -0.178690 0.356880 -0.186790 -0.158040 
-2.604980 17.954860 -1.545010 -0.090803 5.069293 -3.139311 -15.058597 12.930165 1.912078 20.363911 1.460059 -7.569772 0.197693 5.141816 10.280267 -0.467766 4.325940 3.251486 0.590110 0.354140 0.363470 18.263267 -10.872872 3.364323 -24.475325 1.469532 -9.701205 17.619521 -6.457110 5.726187 -0.421556 -5.079175 2.782239 0.258930 0.298510 -0.005770 -3.823352 -0.308561 -7.363926 3.690272 1.599144 6.300318 0.799621 1.512201 19.718416 0.896434 -4.502930 -14.807677 -8.448609 4.301560 43.638471 2.734660 -1.052380 -8.360970 -2.999113 -21.514076 10.303068 -47.527767 -9.953751 -0.749659 23.826889 -12.608516 -4.086700 -3.619727 2.885405 0.477070 0.112880 -0.134640 0.256030 3.436840 29.151034 8.847601 39.565104 38.956268 2.895427 -23.913040 27.353269 -8.549741 1.872364 -1.427181 -0.234010 0.390640 -0.160830 -0.169610 
-2.758960 17.971350 -1.497990 -1.076955 4.879107 -3.313779 -14.981267 13.018323 1.869209 20.792968 1.631528 -7.611021 0.604841 5.389381 11.919930 -0.470215 4.470234 3.236191 0.508090 0.264030 0.300990 18.316160 -11.146537 3.220998 -22.476603 1.388495 -9.725225 16.844423 -6.729548 7.558367 -0.351966 -4.994383 2.875426 0.224260 0.394460 -0.021510 -4.012627 -0.012446 -7.261148 5.210467 1.445116 6.049088 0.372870 1.252399 19.445808 0.980371 -4.173127 -14.546506 -7.436543 4.386583 43.209213 2.216900 -0.772400 -6.235100 -3.886373 -20.994373 10.222564 -48.841956 -8.969812 -1.151189 22.602409 -13.695840 -4.098361 -3.689209 2.816352 0.441610 0.181750 -0.200540 0.260230 4.084140 28.265192 8.694865 40.971899 38.566346 2.375898 -23.137773 31.856555 -9.133389 1.783615 -1.361468 -0.283650 0.437330 -0.117620 -0.160020 
-2.932840 17.995820 -1.468020 -1.132510 4.040533 -3.773867 -14.972683 13.275255 1.723547 19.439355 1.889730 -7.906456 1.895087 5.523312 15.513466 -0.473747 4.465303 3.197364 0.544650 0.315430 0.313400 18.283607 -11.449321 3.128026 -21.565693 1.529400 -10.731201 16.305013 -7.302681 10.968468 -0.327575 -4.996581 2.856235 0.241250 0.355160 0.011680 -3.971703 0.140748 -7.127882 4.835307 1.790237 6.738041 1.094762 1.510001 19.371636 1.137673 -3.869672 -14.247138 -6.473230 4.163892 42.588642 1.253400 -0.314560 -6.380170 -5.426325 -20.364967 9.721917 -51.084781 -8.918468 -1.675077 23.167308 -14.001748 -4.279841 -3.695768 2.882462 0.416530 0.186390 -0.186920 0.258240 5.438869 27.841184 8.770137 41.935312 37.885215 0.652080 -22.688121 36.797805 -10.072911 1.711921 -1.382953 -0.235240 0.377400 -0.134180 -0.158870 
-3.097960 18.010450 -1.437050 -2.746931 3.974175 -3.922453 -14.829057 13.486667 1.670482 19.019077 1.892989 -9.891671 3.706166 5.607219 20.048599 -0.458446 4.574259 3.109153 0.542930 0.310140 0.331770 18.372288 -11.830554 3.005444 -18.907820 1.652417 -11.601598 14.594084 -7.603558 14.646672 -0.297558 -4.845598 2.910563 0.227740 0.311220 0.000670 -4.315048 0.436597 -7.094139 8.221455 1.192142 7.627165 -0.471185 1.031923 18.139181 1.442178 -3.730517 -13.955503 -6.091252 4.297550 42.234388 1.110070 0.116090 -6.186540 -8.055471 -19.674579 9.643737 -52.249097 -7.349464 -2.819926 22.243291 -16.171539 -4.566754 -3.644083 2.880259 0.421000 0.159140 -0.171960 0.246350 7.090426 26.655722 8.696080 45.276547 36.383118 -1.039743 -21.551369 43.754124 -11.297505 1.672225 -1.346438 -0.225660 0.344490 -0.152900 -0.169300 
-3.251200 17.997340 -1.420850 -4.174811 5.255183 -3.669381 -14.722067 13.593087 1.721857 18.298838 1.499719 -13.515892 5.588207 5.589730 25.393477 -0.443707 4.883362 2.966303 0.511490 0.271130 0.334640 18.456542 -12.077865 2.875663 -16.701570 1.741713 -12.686532 12.734121 -7.922773 18.522669 -0.256931 -4.802614 2.957379 0.210250 0.322580 -0.031800 -4.630065 0.618873 -7.098082 11.347882 -0.068421 8.624393 -2.301318 0.021886 16.424951 1.610965 -3.286964 -13.235144 -5.119280 4.477178 40.713058 0.618710 0.851800 -5.633820 -10.753752 -18.340654 9.180638 -52.833530 -5.926045 -3.878005 19.957855 -18.983749 -4.685586 -3.636923 2.816704 0.412170 0.172630 -0.198110 0.238000 8.938716 24.401014 8.349225 50.296120 34.626102 -2.259153 -18.570123 51.509400 -12.147246 1.645391 -1.305513 -0.255120 0.358380 -0.154250 -0.184180 
-3.406880 17.989720 -1.429160 -4.582655 6.096144 -3.673225 -14.749381 13.715605 1.958327 16.687425 0.834394 -17.498528 7.345897 5.615328 32.091245 -0.352384 5.539626 2.679131 0.522580 0.279930 0.360560 18.419074 -12.114453 2.716257 -15.756714 1.836053 -13.794244 10.547388 -8.088892 22.311534 -0.271899 -4.795811 2.938830 0.200610 0.278780 -0.022950 -4.569488 0.333359 -7.211063 12.016186 -0.998953 10.618029 -2.400396 -0.674816 14.562709 1.651871 -3.286594 -12.687637 -5.356595 4.570665 40.754694 0.125320 1.216060 -6.773880 -13.946488 -17.237114 8.581244 -53.346225 -5.175617 -4.488478 16.884214 -20.189974 -4.400363 -3.595826 2.779479 0.451420 0.138660 -0.152230 0.234070 11.752880 23.058192 8.084010 52.431068 31.924785 -3.888475 -10.902511 58.156301 -10.000755 1.681284 -1.347601 -0.245140 0.346210 -0.169180 -0.193930 
-3.566820 17.950420 -1.428930 -4.651442 5.997422 -3.108435 -14.805207 13.591420 2.398460 15.438009 -0.104166 -22.057532 7.937918 6.283073 39.672580 -0.179587 6.612568 2.251862 0.552750 0.297170 0.412190 18.394058 -12.016711 2.559175 -15.352532 2.089123 -15.507296 8.597366 -8.165098 25.818800 -0.288809 -4.846681 2.906825 0.196310 0.200610 -0.025230 -4.453194 0.172645 -7.423705 12.269181 -1.053511 12.283040 -2.479425 -0.441396 12.435726 1.907043 -2.807865 -12.175744 -4.845242 3.701814 40.761505 -1.425290 1.412340 -7.549840 -17.011280 -16.032775 7.777834 -52.968098 -4.614524 -4.906503 11.313334 -21.557343 -3.619875 -3.541746 2.759748 0.489640 0.101190 -0.113520 0.228170 13.980336 21.444617 7.952828 55.026660 28.612467 -4.898851 -0.607990 63.570404 -5.792972 1.746302 -1.489734 -0.232950 0.307620 -0.205770 -0.225190 
-3.727630 17.877750 -1.406920 -4.613815 4.951083 -2.764410 -14.886727 13.335453 2.932143 15.416392 -0.863489 -25.913184 6.861671 8.052744 46.928488 0.076545 7.989084 1.746991 0.561630 0.292000 0.444080 18.369149 -11.880083 2.355938 -15.023499 2.262564 -16.838834 5.977328 -7.805013 28.552687 -0.298525 -4.843204 2.884872 0.176710 0.161490 0.004650 -4.270219 0.121008 -7.649996 11.859349 -0.597924 13.927535 -1.536953 0.246615 10.504679 1.937341 -2.500694 -11.550496 -4.309039 3.312078 40.908841 -2.601710 1.823910 -7.949500 -18.129820 -13.836245 6.499698 -54.959435 -4.907663 -5.177045 6.179226 -22.094147 -2.914718 -3.551580 2.750720 0.511930 0.087370 -0.080330 0.216860 14.904517 19.323783 7.720995 57.167400 25.228404 -5.058232 14.247762 66.964219 2.211381 1.844361 -1.667928 -0.211680 0.270230 -0.214860 -0.238940 
-3.868930 17.778460 -1.407570 -4.730776 3.142742 -2.018602 -14.976231 12.813262 3.708481 16.118365 -1.778353 -31.432518 5.305022 10.896192 55.699596 0.529226 9.761317 1.168437 0.592540 0.362840 0.464010 18.394824 -11.586569 2.150501 -14.559548 2.587282 -18.728236 3.725193 -7.418539 31.175308 -0.333183 -4.848223 2.890509 0.176730 0.122430 0.004360 -4.138979 0.167902 -7.993155 12.089663 0.114061 15.744487 -1.376078 1.467904 7.956187 2.056396 -2.174378 -10.670357 -3.935819 2.504832 40.873023 -3.157450 1.662230 -8.706490 -19.177149 -10.946709 5.029409 -56.071958 -5.069806 -5.413595 -0.330169 -23.039913 -1.847590 -3.524217 2.745033 0.493370 0.059950 -0.022620 0.250230 15.389742 16.528137 7.063922 58.581743 21.669829 -4.527649 30.295937 67.611540 11.774188 1.994795 -1.783231 -0.160980 0.262030 -0.275890 -0.205190 
-4.004580 17.670980 -1.410780 -5.026354 1.744816 -1.375623 -15.104430 12.147994 4.659493 17.822938 -2.776688 -37.819790 3.609850 14.513422 64.866360 0.930452 11.744766 0.543209 0.622230 0.382010 0.522430 18.419733 -11.187226 1.901625 -13.975715 2.784411 -19.782967 1.930737 -7.090192 32.935323 -0.364247 -4.833333 2.883259 0.191220 0.053590 -0.021560 -3.979676 0.166707 -8.401343 12.414397 0.882146 17.789718 -1.124446 2.955320 5.490737 2.205561 -1.741123 -9.814616 -3.512694 1.278282 41.163367 -3.501800 1.195080 -10.729060 -19.277449 -8.026212 3.561106 -57.573996 -5.323318 -5.537359 -7.745504 -23.890783 -0.672946 -3.497871 2.712800 0.561580 0.007000 0.017510 0.230450 14.868010 13.637204 6.223928 59.445266 18.180697 -4.328551 43.821894 63.699809 18.468413 2.111576 -1.774638 -0.180340 0.270560 -0.294700 -0.246180 
-4.128670 17.555270 -1.389770 -5.576494 -0.078860 -1.388966 -15.206261 11.573657 5.530123 20.315783 -3.221432 -43.054149 1.876003 18.722982 73.107811 1.341360 13.633885 0.006063 0.608500 0.324070 0.548780 18.457593 -10.796513 1.666090 -13.303649 2.883272 -19.736964 0.952372 -6.876785 33.534802 -0.371384 -4.778061 2.878230 0.168270 0.028850 -0.025840 -3.891694 0.044783 -8.765692 13.400584 1.028926 19.762796 -1.298621 3.976547 3.803891 2.107843 -2.431927 -9.551603 -5.216499 1.496149 41.921605 -2.959470 0.702140 -11.536070 -18.931710 -6.094719 2.873612 -58.269420 -4.388750 -6.113379 -16.716045 -25.595018 0.900866 -3.488665 2.734079 0.628200 -0.029470 0.022230 0.187620 14.420056 12.375323 5.865918 58.138529 15.297351 -5.055573 52.764850 60.053855 21.913997 2.175640 -1.748378 -0.210000 0.271310 -0.261670 -0.285340 
-4.257660 17.472390 -1.397910 -5.118090 -1.188025 -2.309697 -15.376185 11.131717 6.323371 22.978776 -3.559634 -46.603480 -1.493722 24.208518 79.247895 1.777578 15.287075 -0.440764 0.636300 0.367300 0.580420 18.397536 -10.426853 1.424070 -13.489528 2.777768 -18.916320 0.818314 -6.988804 34.062712 -0.420424 -4.785077 2.862660 0.172910 -0.039920 -0.045590 -3.579520 -0.284798 -9.118008 12.156992 1.567571 22.926082 -0.631379 5.264099 3.314737 1.941723 -2.762472 -10.141706 -6.601677 1.025308 43.739149 -1.818770 -0.328660 -14.232950 -17.908722 -6.826491 3.103249 -57.226459 -4.208716 -6.850230 -25.507062 -28.332805 2.882262 -3.417614 2.787886 0.685970 -0.100080 0.077720 0.155270 13.746789 13.824912 6.424813 55.186841 12.812513 -7.126730 58.531517 57.451586 23.185896 2.205363 -1.704650 -0.190790 0.286200 -0.257190 -0.299250 
-4.373010 17.430910 -1.410850 -4.465774 -3.513560 -4.045049 -15.511528 10.849697 6.920766 25.849322 -2.849121 -47.408050 -6.528611 30.742985 81.883216 2.141609 16.634595 -0.803573 0.669390 0.421630 0.601840 18.339383 -10.130841 1.239390 -13.244357 3.077787 -18.010479 -0.081495 -6.729550 35.464733 -0.506209 -4.843740 2.809310 0.187230 -0.108650 -0.048000 -3.318228 -0.605400 -9.367233 10.883035 1.973707 27.024022 -0.370402 6.521476 3.121783 1.764080 -3.807557 -11.144435 -9.147788 2.260467 46.328101 0.060750 -0.380590 -17.948900 -15.921527 -7.933425 3.811254 -55.494420 -3.062621 -8.248418 -35.248902 -32.337831 5.676509 -3.328879 2.858759 0.775010 -0.184150 0.157280 0.122300 12.222582 16.391871 7.084110 52.016432 12.245165 -8.568166 60.731741 53.639231 21.981832 2.199195 -1.642340 -0.173880 0.306480 -0.237920 -0.311430 
